<?xml version="1.0" encoding="UTF-8" ?>
<!DOCTYPE svg PUBLIC "-//W3C//DTD SVG 1.1//EN" "http://www.w3.org/Graphics/SVG/1.1/DTD/svg11.dtd">
<svg width="404pt" height="139pt" viewBox="0 0 1345 461" version="1.1" xmlns="http://www.w3.org/2000/svg">
<path fill="#fffffe" d=" M 206.50 61.80 C 236.22 58.02 267.00 62.34 294.41 74.50 C 326.10 88.40 353.21 112.50 370.72 142.35 C 383.27 163.47 390.88 187.47 393.11 211.92 C 395.55 239.45 391.05 267.58 379.96 292.90 C 370.12 315.60 355.08 336.02 336.40 352.23 C 314.63 371.13 287.89 384.37 259.54 389.76 C 230.17 395.69 199.22 393.18 171.07 383.01 C 141.26 372.23 114.72 352.70 95.53 327.47 C 77.42 303.93 65.87 275.40 62.58 245.87 C 58.73 213.39 64.73 179.77 79.80 150.72 C 98.18 114.80 130.09 86.00 167.81 71.61 C 180.19 66.62 193.28 63.55 206.50 61.80 M 205.27 75.20 C 205.51 84.37 207.43 93.44 208.27 102.58 C 213.01 102.05 217.72 101.13 222.51 101.22 C 222.64 99.97 222.77 98.72 222.91 97.48 C 219.12 97.84 215.35 98.44 211.56 98.83 C 211.25 95.49 210.77 92.16 210.32 88.82 C 214.01 88.38 217.69 87.86 221.38 87.43 C 221.20 86.68 220.84 85.17 220.67 84.41 C 217.07 84.01 213.47 85.11 209.89 85.43 C 209.62 82.98 209.32 80.54 209.03 78.09 C 212.82 77.48 216.65 77.14 220.44 76.49 C 220.24 75.69 219.84 74.09 219.64 73.29 C 214.88 74.12 209.96 74.18 205.27 75.20 M 231.33 73.25 C 230.60 82.36 229.99 91.48 229.44 100.61 C 233.89 100.97 238.51 101.87 242.86 100.37 C 252.05 97.53 254.89 83.69 247.52 77.49 C 243.19 73.41 236.90 73.38 231.33 73.25 M 261.09 76.61 C 259.15 85.67 257.04 94.69 255.40 103.81 C 256.30 103.92 258.10 104.15 259.00 104.26 C 260.79 95.19 263.07 86.22 264.63 77.11 C 263.74 76.98 261.97 76.74 261.09 76.61 M 186.81 78.71 C 186.66 86.15 186.37 93.59 185.53 100.98 C 180.23 95.22 174.77 89.60 169.45 83.85 C 170.75 93.70 172.44 103.50 174.02 113.31 C 175.22 112.76 176.43 112.21 177.63 111.65 C 176.20 105.80 175.54 99.80 174.36 93.91 C 178.89 99.03 183.90 103.71 188.35 108.90 C 188.93 102.15 189.35 95.39 189.67 88.62 C 193.15 93.55 195.68 99.07 198.91 104.16 C 200.11 103.71 201.31 103.27 202.51 102.83 C 197.68 94.68 192.57 86.69 188.01 78.39 C 187.71 78.47 187.11 78.63 186.81 78.71 M 274.60 85.69 C 268.48 89.66 266.49 98.50 270.25 104.74 C 272.94 110.11 279.21 112.63 284.98 112.14 C 285.56 110.82 286.15 109.49 286.74 108.17 C 283.48 108.62 279.77 109.23 276.95 107.05 C 273.78 105.04 272.28 101.44 271.67 97.88 C 272.32 93.40 274.66 88.84 279.23 87.34 C 284.30 85.11 289.96 88.08 292.74 92.45 C 293.19 91.05 293.66 89.65 294.13 88.26 C 289.29 82.96 280.60 81.61 274.60 85.69 M 287.95 114.91 C 289.02 115.63 290.09 116.35 291.17 117.08 C 293.44 115.83 295.68 114.51 297.93 113.22 C 301.19 115.58 304.56 117.76 307.90 120.00 C 307.64 122.48 307.31 124.95 306.66 127.36 C 307.79 128.17 308.92 128.98 310.06 129.78 C 311.73 119.25 313.57 108.75 315.36 98.24 C 306.13 103.64 297.03 109.27 287.95 114.91 M 135.93 105.03 C 132.12 108.09 132.14 115.20 136.92 117.33 C 141.01 118.51 145.00 116.54 149.04 116.21 C 152.05 115.78 153.89 119.37 153.54 121.96 C 153.15 126.02 147.13 127.34 144.78 124.20 C 143.83 125.02 142.87 125.84 141.90 126.63 C 145.58 131.58 154.22 130.13 156.36 124.41 C 159.35 118.96 154.35 111.34 148.07 112.52 C 144.55 112.29 140.90 115.99 137.70 113.36 C 136.68 112.20 136.15 110.60 137.13 109.24 C 138.15 106.38 141.54 106.11 144.11 106.48 C 144.34 105.41 144.57 104.35 144.80 103.29 C 141.77 102.46 138.19 102.58 135.93 105.03 M 224.67 111.90 C 203.58 112.73 182.67 119.30 165.22 131.24 C 141.21 147.34 123.76 172.89 117.53 201.12 C 112.83 222.65 114.03 245.58 121.71 266.28 C 129.69 288.31 144.58 307.80 163.87 321.12 C 185.52 336.31 212.64 343.45 238.96 340.91 C 263.78 338.70 287.70 327.91 305.86 310.85 C 336.06 283.16 349.21 238.58 338.98 198.91 C 332.68 173.21 317.28 149.80 295.89 134.16 C 275.61 118.89 250.00 111.09 224.67 111.90 M 312.95 133.07 C 315.76 135.90 318.60 138.71 321.38 141.57 C 322.27 140.82 323.16 140.07 324.05 139.33 C 322.12 137.23 320.11 135.21 318.07 133.22 C 323.86 127.59 329.59 121.89 335.19 116.07 C 334.31 115.22 333.44 114.36 332.58 113.50 C 325.98 119.96 319.49 126.54 312.95 133.07 M 120.52 118.80 C 122.06 122.15 123.55 125.52 125.04 128.89 C 125.62 128.68 126.79 128.25 127.37 128.04 C 126.12 124.54 124.84 121.05 123.80 117.49 C 122.70 117.92 121.61 118.35 120.52 118.80 M 104.10 139.62 C 111.29 145.41 118.94 150.60 126.10 156.44 C 129.13 152.40 132.50 148.59 135.16 144.29 C 134.56 143.78 133.36 142.75 132.76 142.23 C 130.29 145.16 128.04 148.25 125.77 151.33 C 123.04 149.33 120.29 147.35 117.78 145.08 C 120.01 142.22 122.35 139.45 124.22 136.34 C 123.35 135.69 122.48 135.04 121.61 134.39 C 119.38 137.30 117.16 140.21 115.04 143.20 C 113.02 141.78 111.06 140.29 109.11 138.77 C 111.39 135.77 113.63 132.74 115.93 129.76 C 114.99 129.07 114.05 128.38 113.12 127.68 C 110.09 131.64 107.20 135.71 104.10 139.62 M 336.10 158.99 C 335.74 163.96 339.11 168.11 342.91 170.85 C 344.24 170.21 345.57 169.58 346.91 168.96 C 343.03 167.02 339.40 163.63 339.37 158.99 C 338.77 151.58 347.05 145.16 354.03 147.99 C 359.32 149.52 362.03 155.25 361.39 160.47 C 362.55 159.78 363.72 159.10 364.90 158.44 C 364.95 151.25 359.05 144.76 351.97 143.86 C 343.51 142.43 335.02 150.42 336.10 158.99 M 96.87 153.02 C 98.47 157.84 100.35 162.58 101.81 167.45 C 98.45 165.70 95.06 164.02 91.74 162.19 C 91.04 163.33 90.40 164.52 89.87 165.75 C 98.37 169.50 106.46 174.10 115.00 177.74 C 115.36 176.93 116.07 175.30 116.43 174.49 C 112.80 172.14 107.96 171.50 105.21 167.97 C 110.11 166.71 115.05 165.62 119.97 164.45 C 122.30 164.08 122.65 161.27 123.70 159.56 C 117.36 161.33 110.85 162.46 104.56 164.41 C 102.36 159.03 100.57 153.48 98.86 147.92 C 98.01 149.49 96.15 151.07 96.87 153.02 M 344.56 177.06 C 346.00 181.93 347.79 186.68 349.55 191.44 C 350.32 191.15 351.87 190.56 352.65 190.27 C 351.40 186.70 350.12 183.15 349.06 179.52 C 352.20 178.49 355.34 177.47 358.45 176.31 C 359.66 179.76 360.93 183.20 361.93 186.73 C 363.15 186.51 365.78 185.99 364.81 184.15 C 363.83 181.15 362.56 178.24 361.87 175.14 C 364.20 174.30 366.55 173.51 368.99 173.06 C 369.88 176.66 371.05 180.19 372.53 183.59 C 373.31 183.27 374.88 182.63 375.67 182.30 C 374.06 177.67 372.17 173.13 370.93 168.37 C 361.96 170.71 353.46 174.52 344.56 177.06 M 84.31 180.42 C 90.11 182.32 96.08 183.66 101.93 185.42 C 104.03 185.97 105.49 187.63 106.88 189.19 C 106.74 191.36 107.13 193.81 105.71 195.66 C 103.98 198.15 100.51 198.14 97.83 197.64 C 92.08 196.40 86.50 194.45 80.72 193.35 C 80.66 194.27 80.53 196.11 80.47 197.02 C 86.44 198.15 92.18 200.22 98.10 201.55 C 102.03 202.53 106.44 200.88 108.66 197.48 C 112.22 192.62 110.37 184.73 104.63 182.46 C 98.39 180.22 91.83 179.01 85.48 177.11 C 85.19 177.94 84.60 179.60 84.31 180.42 M 353.49 196.85 C 350.91 196.75 351.38 199.00 351.69 200.81 C 358.42 200.04 365.10 198.87 371.83 198.06 C 365.78 205.96 359.53 213.71 353.42 221.56 C 362.95 220.18 372.50 218.90 382.03 217.56 C 381.96 216.41 381.90 215.26 381.84 214.11 C 375.15 214.33 368.57 215.67 361.94 216.52 C 367.89 208.63 374.21 201.03 380.31 193.25 C 371.37 194.46 362.44 195.73 353.49 196.85 M 103.08 207.44 C 102.83 210.20 102.59 212.96 102.37 215.73 C 94.35 214.83 86.27 214.62 78.29 213.46 C 78.14 214.71 77.98 215.97 77.82 217.23 C 87.02 218.19 96.25 218.91 105.48 219.72 C 105.73 215.69 106.20 211.68 106.56 207.66 C 105.40 207.59 104.24 207.51 103.08 207.44 M 378.59 227.83 C 378.50 230.00 378.42 232.17 378.32 234.34 C 370.34 233.63 362.34 233.19 354.36 232.55 C 354.08 233.80 353.81 235.05 353.53 236.30 C 361.62 236.63 369.68 237.62 377.78 237.81 C 377.72 240.06 377.66 242.31 377.55 244.56 C 378.65 244.59 379.76 244.62 380.86 244.67 C 381.28 239.05 381.87 233.44 381.88 227.81 C 381.06 227.81 379.42 227.83 378.59 227.83 M 103.59 238.55 C 102.11 239.78 102.08 241.54 102.98 243.14 C 103.69 243.05 105.11 242.89 105.82 242.80 C 107.41 241.91 106.52 240.16 106.23 238.82 C 105.35 238.73 104.47 238.64 103.59 238.55 M 352.64 247.14 C 351.66 252.02 350.64 256.91 349.57 261.78 C 350.31 261.92 351.80 262.21 352.54 262.35 C 354.09 258.86 354.24 254.91 355.30 251.25 C 358.56 252.04 361.85 252.73 365.15 253.42 C 364.38 257.10 363.27 260.74 363.09 264.52 C 364.17 264.57 365.25 264.62 366.33 264.68 C 366.95 261.15 367.65 257.64 368.52 254.17 C 370.94 254.66 373.37 255.17 375.79 255.72 C 374.94 259.30 374.19 262.90 373.37 266.49 C 374.13 266.76 375.66 267.32 376.43 267.59 C 377.92 262.74 378.53 257.67 379.76 252.74 C 370.72 250.86 361.75 248.66 352.64 247.14 M 79.87 254.78 C 81.42 260.08 82.53 265.50 83.91 270.84 C 85.05 270.45 86.20 270.07 87.36 269.72 C 86.71 267.73 86.11 265.74 85.52 263.74 C 93.27 261.79 100.96 259.52 108.81 258.00 C 108.71 256.72 108.61 255.45 108.52 254.19 C 100.56 256.09 92.63 258.10 84.66 259.96 C 84.15 257.81 83.66 255.67 83.17 253.53 C 82.08 253.96 80.98 254.37 79.87 254.78 M 346.05 271.03 C 349.58 272.56 353.29 273.67 356.74 275.39 C 356.70 275.62 356.60 276.08 356.55 276.32 C 351.95 277.59 347.27 278.54 342.63 279.67 C 342.12 281.00 341.62 282.34 341.14 283.69 C 345.80 282.64 350.43 281.43 355.07 280.30 C 354.02 286.17 360.21 291.50 365.84 289.37 C 370.36 287.41 371.29 281.98 373.22 277.96 C 364.70 274.43 356.08 271.17 347.61 267.53 C 347.08 268.69 346.56 269.86 346.05 271.03 M 99.32 276.14 C 98.70 279.51 100.54 284.15 96.98 286.35 C 92.69 287.79 89.45 281.63 92.54 278.55 C 91.63 277.81 90.71 277.08 89.80 276.35 C 86.15 280.61 88.09 287.83 93.27 289.79 C 96.84 291.37 101.53 289.12 102.15 285.17 C 103.29 281.56 101.47 277.04 104.17 274.04 C 106.84 271.58 111.56 272.89 112.45 276.44 C 113.54 279.09 111.38 281.46 109.38 282.89 C 110.20 283.88 111.02 284.88 111.84 285.89 C 113.41 284.43 115.19 282.98 115.80 280.83 C 117.58 276.22 114.36 270.70 109.69 269.46 C 105.25 268.05 99.44 271.20 99.32 276.14 M 115.02 301.96 C 112.57 302.72 113.18 305.63 113.70 307.50 C 115.57 307.62 118.53 308.55 119.00 305.90 C 120.24 303.64 117.26 300.76 115.02 301.96 M 340.24 301.68 C 338.25 302.08 336.46 304.40 337.70 306.33 C 338.19 308.20 340.40 307.81 341.87 307.70 C 344.94 306.37 343.49 301.37 340.24 301.68 M 117.44 332.54 C 118.46 333.40 119.49 334.25 120.56 335.07 C 123.09 332.28 125.75 329.61 128.52 327.06 C 130.21 328.84 131.95 330.77 134.37 331.54 C 139.49 333.45 145.86 328.47 144.71 322.96 C 144.09 318.61 139.99 316.00 137.19 313.02 C 130.73 319.65 123.94 325.94 117.44 332.54 M 315.21 319.20 C 312.09 322.74 313.27 329.26 317.99 330.71 C 322.43 331.71 326.48 328.85 330.73 328.01 C 332.80 329.32 335.21 331.18 334.77 333.97 C 334.57 337.25 330.82 338.75 327.96 338.33 C 327.46 337.91 326.46 337.06 325.96 336.63 C 325.14 337.73 324.32 338.82 323.50 339.92 C 327.49 342.94 334.22 342.72 336.84 338.01 C 340.36 333.12 337.16 325.22 331.05 324.68 C 326.79 324.11 323.29 327.92 319.13 327.16 C 316.63 326.28 317.26 323.48 317.44 321.46 C 319.18 319.90 321.19 318.76 323.63 319.30 C 323.96 318.13 324.31 316.97 324.68 315.82 C 321.20 315.34 317.31 316.17 315.21 319.20 M 136.88 350.19 C 137.91 350.87 138.94 351.54 139.98 352.22 C 142.72 348.73 144.89 344.84 147.62 341.34 C 150.97 343.87 154.48 346.18 158.02 348.41 C 155.70 352.20 152.86 355.66 150.86 359.64 C 151.83 360.27 152.79 360.90 153.76 361.55 C 158.80 353.91 163.95 346.33 169.12 338.79 C 168.17 337.98 167.20 337.18 166.24 336.39 C 164.15 339.46 162.01 342.51 159.98 345.62 C 156.48 343.26 153.00 340.86 149.48 338.53 C 151.41 335.43 153.49 332.43 155.46 329.35 C 154.77 328.80 153.38 327.69 152.69 327.14 C 147.16 334.64 142.35 342.64 136.88 350.19 M 293.15 336.58 C 298.61 344.01 303.36 351.95 308.82 359.39 C 312.88 356.55 316.98 353.77 321.13 351.06 C 320.56 350.10 320.01 349.13 319.47 348.16 C 316.16 350.14 312.98 352.31 309.83 354.51 C 308.02 351.67 306.09 348.90 304.33 346.04 C 307.34 344.02 310.35 341.99 313.40 340.02 C 312.74 339.04 312.09 338.05 311.44 337.08 C 308.39 339.18 305.41 341.40 302.13 343.13 C 300.85 341.10 299.54 339.09 298.24 337.07 C 301.41 335.09 304.47 332.94 307.59 330.86 C 307.14 330.17 306.24 328.77 305.79 328.07 C 301.43 330.68 297.29 333.64 293.15 336.58 M 282.77 342.03 C 284.92 348.36 287.76 354.42 289.80 360.78 C 280.96 356.46 272.00 352.37 263.19 348.00 C 266.31 357.26 269.90 366.38 273.72 375.36 C 274.75 374.87 275.79 374.39 276.82 373.92 C 274.34 367.61 272.08 361.22 269.58 354.93 C 278.47 359.57 287.77 363.40 296.74 367.92 C 293.07 358.87 289.88 349.64 286.17 340.62 C 285.04 341.09 283.90 341.56 282.77 342.03 M 176.00 341.35 C 171.97 349.71 168.13 358.17 164.24 366.59 C 165.41 367.03 166.58 367.48 167.75 367.93 C 171.52 359.54 175.44 351.21 179.44 342.92 C 178.29 342.40 177.14 341.87 176.00 341.35 M 185.94 345.61 C 183.29 354.49 179.98 363.17 177.47 372.11 C 181.18 373.18 184.84 374.41 188.44 375.81 C 188.94 374.71 189.47 373.61 190.01 372.53 C 187.35 371.62 184.68 370.76 181.98 369.98 C 184.54 362.28 186.88 354.51 189.44 346.82 C 188.27 346.41 187.10 346.01 185.94 345.61 M 201.16 350.35 C 199.28 359.38 197.24 368.39 195.38 377.43 C 196.60 377.57 197.83 377.72 199.05 377.88 C 201.05 368.88 202.99 359.87 204.76 350.83 C 203.56 350.67 202.36 350.51 201.16 350.35 M 252.44 351.57 C 254.31 360.52 256.02 369.51 257.60 378.52 C 258.98 378.47 262.05 378.36 261.04 376.10 C 259.26 367.72 257.77 359.28 256.05 350.89 C 254.82 350.86 253.62 351.08 252.44 351.57 M 211.75 352.44 C 211.27 361.71 210.06 370.92 209.46 380.17 C 210.41 380.18 212.31 380.20 213.26 380.20 C 213.47 376.31 213.28 372.32 214.49 368.56 C 218.61 370.10 224.45 368.52 225.86 363.97 C 226.82 361.21 226.88 357.60 224.50 355.53 C 221.10 352.37 216.05 352.73 211.75 352.44 M 232.40 353.50 C 233.08 362.73 233.81 371.96 234.27 381.20 C 235.46 381.10 236.65 381.01 237.84 380.94 C 237.77 377.10 237.58 373.28 237.42 369.45 C 239.69 369.35 242.02 369.15 244.07 368.10 C 248.54 366.26 249.36 360.03 247.08 356.21 C 243.61 351.64 237.29 353.50 232.40 353.50 Z" />
<path fill="#fffffe" d=" M 234.76 76.58 C 239.38 76.96 245.03 78.13 247.07 82.88 C 248.55 87.07 248.10 92.48 244.34 95.37 C 241.34 98.11 237.07 97.85 233.30 97.78 C 233.61 90.70 234.25 83.64 234.76 76.58 Z" />
<path fill="#fffffe" d=" M 300.97 111.10 C 304.25 109.19 307.43 107.14 310.59 105.04 C 310.02 108.79 309.41 112.54 308.53 116.24 C 305.94 114.62 303.43 112.89 300.97 111.10 Z" />
<path fill="#fffffe" d=" M 219.00 117.10 C 249.83 114.03 281.52 125.53 303.73 147.02 L 304.08 147.59 C 253.85 147.51 203.61 147.47 153.37 147.61 L 153.29 147.01 C 171.02 130.07 194.49 119.03 219.00 117.10 Z" />
<path fill="#fffffe" d=" M 151.68 148.75 C 151.37 181.50 151.61 214.26 151.57 247.01 C 152.42 269.29 164.97 289.25 179.86 305.07 C 191.25 317.01 204.02 327.72 218.24 336.14 C 193.64 333.87 170.03 322.75 152.46 305.41 C 134.45 287.87 122.91 263.98 120.11 239.01 C 116.25 206.24 128.08 171.88 151.68 148.75 Z" />
<path fill="#fffffe" d=" M 305.39 235.03 C 305.38 206.23 305.41 177.44 305.40 148.64 C 321.09 164.44 332.01 185.00 335.81 206.98 C 340.94 235.02 334.77 265.01 318.61 288.55 C 299.84 316.66 267.36 335.32 233.47 336.44 L 234.67 335.72 C 244.97 330.01 254.97 323.67 264.00 316.07 C 283.09 300.43 298.76 279.40 304.22 255.01 C 305.93 248.48 305.30 241.70 305.39 235.03 Z" />
<path fill="#fffffe" d=" M 211.75 152.33 C 214.00 152.43 216.25 152.53 218.51 152.62 C 218.64 176.36 218.52 200.10 218.56 223.85 C 211.37 223.53 204.18 224.67 197.00 223.89 C 183.70 224.08 170.39 223.94 157.08 223.84 C 157.10 222.29 157.11 220.75 157.12 219.21 C 175.25 219.26 193.39 219.11 211.52 219.26 C 212.04 196.96 211.55 174.64 211.75 152.33 Z" />
<path fill="#fffffe" d=" M 235.45 154.19 C 256.08 154.33 276.72 153.91 297.34 154.42 C 297.02 156.26 296.69 158.12 296.76 160.01 C 297.73 173.31 296.66 186.64 297.23 199.95 C 297.24 201.95 297.11 203.96 297.01 205.97 C 297.31 208.54 297.21 211.14 296.84 213.71 C 276.75 213.76 256.66 213.77 236.56 213.71 C 236.40 193.86 235.60 174.04 235.45 154.19 Z" />
<path fill="#fffffe" d=" M 186.86 172.86 C 188.28 175.54 189.13 178.46 190.00 181.36 C 193.19 181.40 196.38 181.44 199.57 181.48 C 197.02 183.28 194.55 185.19 192.05 187.06 C 192.80 190.01 193.78 192.89 194.62 195.82 C 192.03 194.40 189.90 192.19 187.16 191.09 C 184.29 192.10 182.10 194.46 179.38 195.82 C 180.40 192.90 181.38 189.95 182.06 186.93 C 179.58 185.23 177.17 183.41 174.87 181.47 C 177.94 181.43 181.01 181.41 184.08 181.33 C 185.14 178.55 186.03 175.71 186.86 172.86 Z" />
<path fill="#fffffe" d=" M 230.63 329.96 C 230.50 296.43 230.61 262.90 230.59 229.37 C 252.52 229.21 274.46 229.27 296.39 229.34 C 296.39 230.40 296.38 232.52 296.38 233.57 C 276.38 233.61 256.39 233.60 236.40 233.57 C 236.28 264.35 236.39 295.13 236.34 325.91 C 234.49 327.34 232.60 328.70 230.63 329.96 Z" />
<path fill="#fffffe" d=" M 157.49 241.79 C 175.51 241.82 193.54 241.86 211.57 241.79 C 212.06 256.20 211.19 270.64 212.23 285.02 C 212.12 297.34 212.38 309.66 212.36 321.98 C 209.37 321.26 207.14 319.03 204.68 317.33 C 192.04 308.12 181.10 296.76 171.44 284.51 C 162.08 272.39 157.69 256.96 157.49 241.79 Z" />
<path fill="#fffffe" d=" M 359.32 276.98 C 362.74 277.26 365.76 279.02 368.88 280.31 C 367.60 282.43 366.74 285.39 364.00 285.98 C 361.81 286.79 359.29 285.08 358.50 283.04 C 358.26 280.98 358.90 278.97 359.32 276.98 Z" />
<path fill="#fffffe" d=" M 130.86 324.53 C 133.12 322.30 135.34 320.02 137.72 317.91 C 139.58 320.24 142.92 323.43 140.42 326.48 C 137.69 330.10 132.83 327.66 130.86 324.53 Z" />
<path fill="#fffffe" d=" M 215.29 355.86 C 217.76 356.31 220.73 356.44 222.38 358.63 C 223.26 360.72 222.88 363.68 220.70 364.81 C 218.80 366.00 216.51 365.64 214.41 365.68 C 214.54 362.39 214.83 359.12 215.29 355.86 Z" />
<path fill="#fffffe" d=" M 236.51 356.41 C 238.80 356.57 241.37 356.24 243.36 357.65 C 245.44 359.26 245.28 362.68 243.35 364.34 C 241.64 365.81 239.24 365.85 237.15 366.36 C 236.75 363.05 236.62 359.73 236.51 356.41 Z" />
<path fill="#2e3192" d=" M 225.49 7.56 C 230.15 6.60 234.66 8.95 238.25 11.70 C 243.46 15.84 247.72 21.00 252.10 25.96 C 255.33 29.53 259.10 33.17 264.01 34.07 C 269.98 35.18 275.79 32.75 281.15 30.42 C 288.81 27.11 295.43 20.95 304.11 20.49 C 309.52 19.86 314.93 22.45 318.13 26.79 C 323.10 33.44 325.34 41.83 325.70 50.04 C 326.01 54.33 327.29 58.64 329.92 62.10 C 333.16 66.56 338.57 68.93 343.90 69.69 C 354.63 71.27 365.19 65.77 375.88 68.35 C 380.80 69.21 385.11 72.92 386.04 77.93 C 387.72 87.88 385.61 97.95 385.46 107.94 C 385.29 114.12 387.93 120.39 392.96 124.12 C 402.97 132.32 417.84 129.72 427.47 138.54 C 432.91 143.38 432.55 151.70 429.63 157.80 C 426.00 166.68 417.53 172.71 414.87 182.09 C 413.43 186.32 414.43 191.20 417.32 194.59 C 421.82 200.14 428.96 202.30 434.35 206.78 C 440.88 211.91 447.27 219.22 446.73 228.08 C 447.01 235.56 441.78 241.75 436.45 246.37 C 430.47 251.75 421.83 254.38 418.01 261.94 C 414.72 267.98 416.84 275.20 419.97 280.83 C 423.73 288.17 431.22 293.48 432.69 301.96 C 433.81 307.34 430.60 312.56 426.14 315.34 C 417.68 320.72 407.56 322.25 398.58 326.48 C 391.57 328.90 387.12 335.91 386.43 343.09 C 385.88 350.06 386.13 357.11 387.21 364.02 C 387.91 370.94 386.11 378.92 380.12 383.12 C 373.94 387.47 365.88 386.92 358.79 385.83 C 350.79 385.11 341.89 383.15 334.60 387.61 C 328.27 392.35 326.62 400.74 325.32 408.07 C 324.32 415.89 319.79 423.98 311.90 426.49 C 302.50 429.24 292.90 425.42 284.44 421.49 C 276.82 418.27 268.08 414.66 259.85 417.76 C 252.33 420.57 248.95 428.35 243.97 434.02 C 239.96 439.02 235.34 445.15 228.26 445.16 C 219.61 444.10 213.75 436.75 208.41 430.57 C 203.04 424.91 197.67 418.47 189.96 416.04 C 183.68 414.12 177.61 417.71 172.09 420.28 C 164.72 423.60 157.32 428.25 148.91 427.60 C 142.60 427.15 137.65 422.42 134.63 417.20 C 129.32 407.65 126.90 396.60 120.38 387.72 C 117.41 383.54 111.82 382.63 107.08 383.65 C 96.77 385.61 85.22 387.70 75.56 382.36 C 68.05 378.14 65.92 368.65 66.90 360.67 C 68.04 352.86 69.49 344.70 67.13 336.96 C 65.86 332.21 62.32 328.21 57.85 326.22 C 50.81 322.70 42.41 323.52 35.59 319.42 C 29.17 316.00 22.64 309.87 23.17 301.99 C 23.11 296.76 26.26 292.27 29.52 288.48 C 35.24 281.36 38.92 271.41 35.45 262.47 C 32.68 254.81 25.89 249.84 19.55 245.26 C 14.01 240.46 7.47 235.49 5.69 228.00 C 4.27 221.08 10.03 215.77 14.90 211.88 C 22.45 205.78 32.10 201.09 36.25 191.81 C 39.63 182.78 34.36 173.70 30.18 165.93 C 26.08 158.28 22.19 148.73 26.39 140.32 C 30.14 133.25 38.46 130.76 45.86 129.78 C 53.38 128.55 62.32 126.39 65.78 118.75 C 70.31 108.62 66.04 97.56 66.30 87.02 C 66.06 80.80 66.78 73.15 72.71 69.62 C 79.11 66.04 86.91 67.12 93.82 68.31 C 101.52 70.43 110.33 71.75 117.63 67.64 C 122.56 64.92 125.18 59.44 125.82 54.02 C 127.26 44.21 130.13 34.26 136.49 26.47 C 140.72 22.17 147.40 21.79 152.90 23.44 C 163.62 26.74 172.95 33.77 184.04 35.98 C 190.80 37.30 197.49 33.83 201.80 28.78 C 206.98 22.71 211.79 16.21 218.03 11.14 C 220.21 9.42 222.75 8.11 225.49 7.56 M 206.50 61.80 C 193.28 63.55 180.19 66.62 167.81 71.61 C 130.09 86.00 98.18 114.80 79.80 150.72 C 64.73 179.77 58.73 213.39 62.58 245.87 C 65.87 275.40 77.42 303.93 95.53 327.47 C 114.72 352.70 141.26 372.23 171.07 383.01 C 199.22 393.18 230.17 395.69 259.54 389.76 C 287.89 384.37 314.63 371.13 336.40 352.23 C 355.08 336.02 370.12 315.60 379.96 292.90 C 391.05 267.58 395.55 239.45 393.11 211.92 C 390.88 187.47 383.27 163.47 370.72 142.35 C 353.21 112.50 326.10 88.40 294.41 74.50 C 267.00 62.34 236.22 58.02 206.50 61.80 Z" />
<path fill="#2e3192" d=" M 986.20 11.48 C 992.34 11.46 998.48 11.56 1004.62 11.45 C 1004.69 50.78 1004.66 90.12 1004.64 129.45 C 1014.27 120.13 1023.41 110.32 1033.01 100.97 C 1035.56 98.50 1037.99 95.91 1040.34 93.25 C 1048.62 93.24 1056.89 93.21 1065.17 93.26 C 1062.19 96.91 1058.51 99.87 1055.19 103.19 C 1045.00 113.42 1034.57 123.42 1024.43 133.70 C 1039.58 152.27 1054.59 170.97 1069.71 189.57 C 1061.53 189.72 1053.36 189.60 1045.19 189.63 C 1033.75 175.14 1022.29 160.67 1010.93 146.13 C 1008.91 148.35 1006.47 150.21 1004.71 152.64 C 1004.58 164.97 1004.68 177.30 1004.67 189.64 C 998.52 189.68 992.37 189.60 986.23 189.65 C 986.18 130.26 986.23 70.87 986.20 11.48 Z" />
<path fill="#2e3192" d=" M 507.94 52.96 C 522.12 29.04 559.72 23.91 579.53 43.55 C 582.91 47.12 586.56 50.86 588.10 55.64 C 582.95 58.37 578.11 61.62 573.14 64.64 C 568.92 57.60 562.27 51.69 554.01 50.17 C 543.09 47.48 531.02 52.66 525.06 62.09 C 520.97 68.52 522.05 77.39 526.74 83.21 C 530.76 88.37 536.78 91.57 542.90 93.59 C 550.75 96.29 558.73 98.81 565.96 102.98 C 574.42 107.77 583.08 113.43 587.77 122.26 C 594.97 136.39 595.50 154.33 587.19 168.12 C 575.52 188.08 548.83 198.49 527.05 189.80 C 514.26 185.25 503.61 174.87 499.12 162.01 C 497.66 157.99 496.89 153.76 496.17 149.57 C 502.63 148.07 509.12 146.68 515.60 145.27 C 515.99 152.15 517.78 159.26 522.57 164.44 C 528.10 170.95 536.69 174.21 545.06 174.68 C 553.25 174.73 561.35 170.99 566.84 164.96 C 573.29 156.82 575.39 145.32 572.48 135.40 C 569.52 126.26 560.20 121.78 552.21 117.84 C 539.40 112.63 526.23 107.50 515.38 98.72 C 502.31 87.88 499.14 67.39 507.94 52.96 Z" />
<path fill="#2e3192" d=" M 1179.49 88.17 C 1187.09 69.21 1194.64 50.20 1202.69 31.42 C 1207.92 33.81 1213.34 35.79 1218.66 37.98 C 1209.76 56.33 1200.34 74.43 1191.47 92.79 C 1187.44 91.35 1183.49 89.69 1179.49 88.17 Z" />
<path fill="#2e3192" d=" M 796.12 34.96 C 802.60 34.98 809.07 34.94 815.55 34.95 C 815.43 80.52 815.59 126.08 815.47 171.65 C 831.12 171.71 846.78 171.64 862.44 171.68 C 862.43 177.66 862.42 183.63 862.44 189.61 C 840.34 189.67 818.23 189.59 796.13 189.65 C 796.13 138.09 796.13 86.52 796.12 34.96 Z" />
<path fill="#2e3192" d=" M 618.35 93.23 C 618.31 81.03 618.33 68.83 618.35 56.64 C 624.47 56.67 630.59 56.71 636.72 56.59 C 636.84 68.81 636.76 81.04 636.75 93.26 C 642.95 93.25 649.16 93.20 655.36 93.27 C 655.27 99.05 655.28 104.84 655.36 110.63 C 649.16 110.73 642.97 110.67 636.78 110.70 C 636.76 137.02 636.80 163.34 636.76 189.66 C 630.60 189.60 624.45 189.64 618.31 189.63 C 618.33 163.31 618.36 136.99 618.30 110.67 C 614.92 110.70 611.55 110.70 608.19 110.69 C 608.18 104.88 608.23 99.07 608.13 93.26 C 611.54 93.24 614.94 93.23 618.35 93.23 Z" />
<path fill="#2e3192" d=" M 205.27 75.20 C 209.96 74.18 214.88 74.12 219.64 73.29 C 219.84 74.09 220.24 75.69 220.44 76.49 C 216.65 77.14 212.82 77.48 209.03 78.09 C 209.32 80.54 209.62 82.98 209.89 85.43 C 213.47 85.11 217.07 84.01 220.67 84.41 C 220.84 85.17 221.20 86.68 221.38 87.43 C 217.69 87.86 214.01 88.38 210.32 88.82 C 210.77 92.16 211.25 95.49 211.56 98.83 C 215.35 98.44 219.12 97.84 222.91 97.48 C 222.77 98.72 222.64 99.97 222.51 101.22 C 217.72 101.13 213.01 102.05 208.27 102.58 C 207.43 93.44 205.51 84.37 205.27 75.20 Z" />
<path fill="#2e3192" d=" M 231.33 73.25 C 236.90 73.38 243.19 73.41 247.52 77.49 C 254.89 83.69 252.05 97.53 242.86 100.37 C 238.51 101.87 233.89 100.97 229.44 100.61 C 229.99 91.48 230.60 82.36 231.33 73.25 M 234.76 76.58 C 234.25 83.64 233.61 90.70 233.30 97.78 C 237.07 97.85 241.34 98.11 244.34 95.37 C 248.10 92.48 248.55 87.07 247.07 82.88 C 245.03 78.13 239.38 76.96 234.76 76.58 Z" />
<path fill="#2e3192" d=" M 261.09 76.61 C 261.97 76.74 263.74 76.98 264.63 77.11 C 263.07 86.22 260.79 95.19 259.00 104.26 C 258.10 104.15 256.30 103.92 255.40 103.81 C 257.04 94.69 259.15 85.67 261.09 76.61 Z" />
<path fill="#2e3192" d=" M 186.81 78.71 C 187.11 78.63 187.71 78.47 188.01 78.39 C 192.57 86.69 197.68 94.68 202.51 102.83 C 201.31 103.27 200.11 103.71 198.91 104.16 C 195.68 99.07 193.15 93.55 189.67 88.62 C 189.35 95.39 188.93 102.15 188.35 108.90 C 183.90 103.71 178.89 99.03 174.36 93.91 C 175.54 99.80 176.20 105.80 177.63 111.65 C 176.43 112.21 175.22 112.76 174.02 113.31 C 172.44 103.50 170.75 93.70 169.45 83.85 C 174.77 89.60 180.23 95.22 185.53 100.98 C 186.37 93.59 186.66 86.15 186.81 78.71 Z" />
<path fill="#2e3192" d=" M 274.60 85.69 C 280.60 81.61 289.29 82.96 294.13 88.26 C 293.66 89.65 293.19 91.05 292.74 92.45 C 289.96 88.08 284.30 85.11 279.23 87.34 C 274.66 88.84 272.32 93.40 271.67 97.88 C 272.28 101.44 273.78 105.04 276.95 107.05 C 279.77 109.23 283.48 108.62 286.74 108.17 C 286.15 109.49 285.56 110.82 284.98 112.14 C 279.21 112.63 272.94 110.11 270.25 104.74 C 266.49 98.50 268.48 89.66 274.60 85.69 Z" />
<path fill="#2e3192" d=" M 1097.35 97.26 C 1108.74 90.11 1123.14 89.29 1135.99 92.33 C 1147.88 95.16 1157.62 104.31 1162.41 115.41 C 1166.71 124.49 1167.63 134.69 1167.36 144.60 C 1143.10 144.93 1118.84 144.64 1094.58 144.75 C 1094.89 151.80 1096.44 159.09 1100.83 164.80 C 1107.43 173.95 1119.89 178.56 1130.83 175.63 C 1140.09 173.01 1147.26 165.68 1151.62 157.32 C 1156.92 160.57 1162.41 163.51 1167.69 166.81 C 1160.29 177.78 1150.46 188.74 1136.94 191.56 C 1125.81 193.79 1113.75 193.69 1103.32 188.76 C 1093.23 184.66 1085.07 176.25 1081.13 166.11 C 1076.62 154.07 1073.81 140.78 1076.82 128.02 C 1079.28 115.65 1086.31 103.77 1097.35 97.26 M 1104.49 113.48 C 1099.15 117.63 1096.81 124.23 1095.40 130.60 C 1113.21 130.93 1131.03 130.60 1148.85 130.76 C 1147.86 122.46 1143.50 114.19 1136.08 109.96 C 1126.11 104.58 1113.22 106.61 1104.49 113.48 Z" />
<path fill="#2e3192" d=" M 1269.07 91.15 C 1281.91 88.40 1295.83 95.81 1300.74 107.95 C 1295.57 110.32 1290.65 113.18 1285.59 115.77 C 1283.75 112.65 1281.47 109.46 1277.91 108.24 C 1274.26 106.96 1269.64 106.88 1266.62 109.62 C 1263.66 112.22 1262.18 117.05 1264.48 120.54 C 1267.49 125.08 1272.78 127.08 1277.41 129.52 C 1284.94 133.51 1293.35 136.29 1299.54 142.40 C 1307.05 148.93 1309.60 160.03 1306.89 169.43 C 1304.06 178.90 1296.72 186.84 1287.65 190.69 C 1280.87 193.62 1273.19 193.23 1266.07 191.97 C 1255.04 189.90 1245.96 181.60 1241.29 171.61 C 1246.57 168.67 1252.21 166.46 1257.58 163.69 C 1260.53 170.66 1267.19 176.36 1275.00 176.53 C 1280.78 176.11 1286.51 172.47 1288.56 166.91 C 1290.08 161.89 1287.07 156.88 1283.33 153.72 C 1274.79 146.73 1263.67 143.88 1255.28 136.68 C 1250.14 132.61 1246.31 126.64 1245.91 119.98 C 1245.47 106.57 1255.56 93.23 1269.07 91.15 Z" />
<path fill="#2e3192" d=" M 875.81 93.21 C 881.93 93.24 888.06 93.27 894.18 93.19 C 894.28 108.12 894.19 123.05 894.23 137.98 C 894.31 144.71 893.66 151.59 895.62 158.14 C 897.18 163.35 899.57 168.59 903.79 172.19 C 912.95 179.57 929.10 177.69 934.54 166.61 C 937.40 160.87 938.43 154.37 938.42 148.00 C 938.37 129.76 938.47 111.51 938.37 93.26 C 944.54 93.23 950.71 93.22 956.88 93.26 C 956.79 113.52 956.97 133.79 956.79 154.05 C 955.86 165.22 952.17 176.94 943.62 184.65 C 928.90 198.36 903.70 197.29 889.20 183.77 C 880.40 175.72 875.95 163.74 875.78 151.96 C 875.79 132.38 875.77 112.79 875.81 93.21 Z" />
<path fill="#2e3192" d=" M 287.95 114.91 C 297.03 109.27 306.13 103.64 315.36 98.24 C 313.57 108.75 311.73 119.25 310.06 129.78 C 308.92 128.98 307.79 128.17 306.66 127.36 C 307.31 124.95 307.64 122.48 307.90 120.00 C 304.56 117.76 301.19 115.58 297.93 113.22 C 295.68 114.51 293.44 115.83 291.17 117.08 C 290.09 116.35 289.02 115.63 287.95 114.91 M 300.97 111.10 C 303.43 112.89 305.94 114.62 308.53 116.24 C 309.41 112.54 310.02 108.79 310.59 105.04 C 307.43 107.14 304.25 109.19 300.97 111.10 Z" />
<path fill="#2e3192" d=" M 135.93 105.03 C 138.19 102.58 141.77 102.46 144.80 103.29 C 144.57 104.35 144.34 105.41 144.11 106.48 C 141.54 106.11 138.15 106.38 137.13 109.24 C 136.15 110.60 136.68 112.20 137.70 113.36 C 140.90 115.99 144.55 112.29 148.07 112.52 C 154.35 111.34 159.35 118.96 156.36 124.41 C 154.22 130.13 145.58 131.58 141.90 126.63 C 142.87 125.84 143.83 125.02 144.78 124.20 C 147.13 127.34 153.15 126.02 153.54 121.96 C 153.89 119.37 152.05 115.78 149.04 116.21 C 145.00 116.54 141.01 118.51 136.92 117.33 C 132.14 115.20 132.12 108.09 135.93 105.03 Z" />
<path fill="#2e3192" d=" M 224.67 111.90 C 250.00 111.09 275.61 118.89 295.89 134.16 C 317.28 149.80 332.68 173.21 338.98 198.91 C 349.21 238.58 336.06 283.16 305.86 310.85 C 287.70 327.91 263.78 338.70 238.96 340.91 C 212.64 343.45 185.52 336.31 163.87 321.12 C 144.58 307.80 129.69 288.31 121.71 266.28 C 114.03 245.58 112.83 222.65 117.53 201.12 C 123.76 172.89 141.21 147.34 165.22 131.24 C 182.67 119.30 203.58 112.73 224.67 111.90 M 219.00 117.10 C 194.49 119.03 171.02 130.07 153.29 147.01 L 153.16 146.13 C 152.66 147.00 152.13 147.85 151.68 148.75 C 128.08 171.88 116.25 206.24 120.11 239.01 C 122.91 263.98 134.45 287.87 152.46 305.41 C 170.03 322.75 193.64 333.87 218.24 336.14 C 222.63 337.41 227.46 338.47 231.91 336.85 C 232.82 336.47 233.76 336.14 234.67 335.72 L 233.47 336.44 C 267.36 335.32 299.84 316.66 318.61 288.55 C 334.77 265.01 340.94 235.02 335.81 206.98 C 332.01 185.00 321.09 164.44 305.40 148.64 L 305.40 148.31 C 304.75 147.68 304.09 147.06 303.41 146.47 L 303.73 147.02 C 281.52 125.53 249.83 114.03 219.00 117.10 Z" />
<path fill="#2e3192" d=" M 312.95 133.07 C 319.49 126.54 325.98 119.96 332.58 113.50 C 333.44 114.36 334.31 115.22 335.19 116.07 C 329.59 121.89 323.86 127.59 318.07 133.22 C 320.11 135.21 322.12 137.23 324.05 139.33 C 323.16 140.07 322.27 140.82 321.38 141.57 C 318.60 138.71 315.76 135.90 312.95 133.07 Z" />
<path fill="#2e3192" d=" M 120.52 118.80 C 121.61 118.35 122.70 117.92 123.80 117.49 C 124.84 121.05 126.12 124.54 127.37 128.04 C 126.79 128.25 125.62 128.68 125.04 128.89 C 123.55 125.52 122.06 122.15 120.52 118.80 Z" />
<path fill="#2e3192" d=" M 104.10 139.62 C 107.20 135.71 110.09 131.64 113.12 127.68 C 114.05 128.38 114.99 129.07 115.93 129.76 C 113.63 132.74 111.39 135.77 109.11 138.77 C 111.06 140.29 113.02 141.78 115.04 143.20 C 117.16 140.21 119.38 137.30 121.61 134.39 C 122.48 135.04 123.35 135.69 124.22 136.34 C 122.35 139.45 120.01 142.22 117.78 145.08 C 120.29 147.35 123.04 149.33 125.77 151.33 C 128.04 148.25 130.29 145.16 132.76 142.23 C 133.36 142.75 134.56 143.78 135.16 144.29 C 132.50 148.59 129.13 152.40 126.10 156.44 C 118.94 150.60 111.29 145.41 104.10 139.62 Z" />
<path fill="#2e3192" d=" M 336.10 158.99 C 335.02 150.42 343.51 142.43 351.97 143.86 C 359.05 144.76 364.95 151.25 364.90 158.44 C 363.72 159.10 362.55 159.78 361.39 160.47 C 362.03 155.25 359.32 149.52 354.03 147.99 C 347.05 145.16 338.77 151.58 339.37 158.99 C 339.40 163.63 343.03 167.02 346.91 168.96 C 345.57 169.58 344.24 170.21 342.91 170.85 C 339.11 168.11 335.74 163.96 336.10 158.99 Z" />
<path fill="#2e3192" d=" M 96.87 153.02 C 96.15 151.07 98.01 149.49 98.86 147.92 C 100.57 153.48 102.36 159.03 104.56 164.41 C 110.85 162.46 117.36 161.33 123.70 159.56 C 122.65 161.27 122.30 164.08 119.97 164.45 C 115.05 165.62 110.11 166.71 105.21 167.97 C 107.96 171.50 112.80 172.14 116.43 174.49 C 116.07 175.30 115.36 176.93 115.00 177.74 C 106.46 174.10 98.37 169.50 89.87 165.75 C 90.40 164.52 91.04 163.33 91.74 162.19 C 95.06 164.02 98.45 165.70 101.81 167.45 C 100.35 162.58 98.47 157.84 96.87 153.02 Z" />
<path fill="#2e3192" d=" M 683.58 169.01 C 690.66 167.50 697.99 173.84 697.60 181.05 C 697.81 188.36 690.11 194.44 683.04 192.67 C 676.43 191.21 671.97 183.65 674.23 177.18 C 675.40 172.95 679.24 169.65 683.58 169.01 Z" />
<path fill="#2e3192" d=" M 344.56 177.06 C 353.46 174.52 361.96 170.71 370.93 168.37 C 372.17 173.13 374.06 177.67 375.67 182.30 C 374.88 182.63 373.31 183.27 372.53 183.59 C 371.05 180.19 369.88 176.66 368.99 173.06 C 366.55 173.51 364.20 174.30 361.87 175.14 C 362.56 178.24 363.83 181.15 364.81 184.15 C 365.78 185.99 363.15 186.51 361.93 186.73 C 360.93 183.20 359.66 179.76 358.45 176.31 C 355.34 177.47 352.20 178.49 349.06 179.52 C 350.12 183.15 351.40 186.70 352.65 190.27 C 351.87 190.56 350.32 191.15 349.55 191.44 C 347.79 186.68 346.00 181.93 344.56 177.06 Z" />
<path fill="#2e3192" d=" M 84.31 180.42 C 84.60 179.60 85.19 177.94 85.48 177.11 C 91.83 179.01 98.39 180.22 104.63 182.46 C 110.37 184.73 112.22 192.62 108.66 197.48 C 106.44 200.88 102.03 202.53 98.10 201.55 C 92.18 200.22 86.44 198.15 80.47 197.02 C 80.53 196.11 80.66 194.27 80.72 193.35 C 86.50 194.45 92.08 196.40 97.83 197.64 C 100.51 198.14 103.98 198.15 105.71 195.66 C 107.13 193.81 106.74 191.36 106.88 189.19 C 105.49 187.63 104.03 185.97 101.93 185.42 C 96.08 183.66 90.11 182.32 84.31 180.42 Z" />
<path fill="#2e3192" d=" M 353.49 196.85 C 362.44 195.73 371.37 194.46 380.31 193.25 C 374.21 201.03 367.89 208.63 361.94 216.52 C 368.57 215.67 375.15 214.33 381.84 214.11 C 381.90 215.26 381.96 216.41 382.03 217.56 C 372.50 218.90 362.95 220.18 353.42 221.56 C 359.53 213.71 365.78 205.96 371.83 198.06 C 365.10 198.87 358.42 200.04 351.69 200.81 C 351.38 199.00 350.91 196.75 353.49 196.85 Z" />
<path fill="#2e3192" d=" M 103.08 207.44 C 104.24 207.51 105.40 207.59 106.56 207.66 C 106.20 211.68 105.73 215.69 105.48 219.72 C 96.25 218.91 87.02 218.19 77.82 217.23 C 77.98 215.97 78.14 214.71 78.29 213.46 C 86.27 214.62 94.35 214.83 102.37 215.73 C 102.59 212.96 102.83 210.20 103.08 207.44 Z" />
<path fill="#2e3192" d=" M 723.64 211.77 C 727.64 211.79 731.65 211.76 735.66 211.81 C 735.58 246.64 735.78 281.47 735.56 316.30 C 731.58 316.23 727.60 316.23 723.63 316.29 C 723.62 313.37 723.62 310.46 723.59 307.54 C 713.76 321.50 691.07 321.41 680.25 308.74 C 668.64 296.38 670.15 274.05 683.93 263.91 C 695.72 254.81 714.71 256.70 723.64 268.91 C 723.61 249.86 723.63 230.81 723.64 211.77 M 702.66 267.87 C 694.90 268.37 687.89 274.09 685.71 281.53 C 682.54 290.73 686.56 302.25 695.39 306.73 C 701.27 309.25 708.25 308.83 714.01 306.14 C 724.60 300.56 727.44 285.08 720.34 275.68 C 716.35 270.19 709.32 267.46 702.66 267.87 Z" />
<path fill="#2e3192" d=" M 919.34 316.45 C 919.28 281.55 919.22 246.63 919.37 211.73 C 923.03 211.80 926.68 211.80 930.35 211.78 C 930.35 246.67 930.31 281.56 930.37 316.44 C 926.69 316.42 923.01 316.42 919.34 316.45 Z" />
<path fill="#2e3192" d=" M 1005.61 225.69 C 1022.20 216.57 1043.69 215.12 1060.38 224.76 C 1060.33 229.53 1060.44 234.30 1060.13 239.07 C 1052.66 233.03 1043.35 228.93 1033.61 229.16 C 1012.04 228.14 991.39 248.12 993.36 269.99 C 993.65 291.53 1014.90 309.17 1036.02 307.13 C 1044.49 306.51 1052.37 302.66 1059.04 297.57 C 1059.02 302.42 1059.11 307.27 1058.73 312.12 C 1048.16 317.58 1035.80 319.74 1024.06 317.59 C 1007.23 314.98 992.01 303.57 984.99 288.02 C 979.67 277.15 979.13 264.30 982.97 252.88 C 986.38 241.16 995.37 231.87 1005.61 225.69 Z" />
<path fill="#2e3192" d=" M 506.20 258.54 C 508.84 246.28 510.93 233.86 514.17 221.75 C 525.35 245.83 536.24 270.05 547.68 293.99 C 558.81 269.71 570.32 245.62 581.36 221.30 C 588.34 253.43 594.73 285.69 601.68 317.82 C 597.27 317.79 592.87 317.80 588.48 317.76 C 584.82 297.48 581.08 277.22 577.06 257.02 C 567.42 278.15 557.56 299.19 547.53 320.14 C 537.53 299.06 528.01 277.75 517.93 256.72 C 514.50 277.15 510.08 297.40 506.49 317.81 C 502.30 317.79 498.11 317.79 493.93 317.80 C 497.85 298.02 502.03 278.28 506.20 258.54 Z" />
<path fill="#2e3192" d=" M 757.31 225.30 C 761.89 222.85 767.58 226.95 767.35 231.96 C 767.86 238.04 758.96 241.19 755.24 236.70 C 751.99 233.45 752.82 227.03 757.31 225.30 Z" />
<path fill="#2e3192" d=" M 378.59 227.83 C 379.42 227.83 381.06 227.81 381.88 227.81 C 381.87 233.44 381.28 239.05 380.86 244.67 C 379.76 244.62 378.65 244.59 377.55 244.56 C 377.66 242.31 377.72 240.06 377.78 237.81 C 369.68 237.62 361.62 236.63 353.53 236.30 C 353.81 235.05 354.08 233.80 354.36 232.55 C 362.34 233.19 370.34 233.63 378.32 234.34 C 378.42 232.17 378.50 230.00 378.59 227.83 Z" />
<path fill="#2e3192" d=" M 103.59 238.55 C 104.47 238.64 105.35 238.73 106.23 238.82 C 106.52 240.16 107.41 241.91 105.82 242.80 C 105.11 242.89 103.69 243.05 102.98 243.14 C 102.08 241.54 102.11 239.78 103.59 238.55 Z" />
<path fill="#2e3192" d=" M 1208.71 237.69 C 1212.41 237.69 1216.13 237.67 1219.85 237.67 C 1219.73 244.90 1219.81 252.13 1219.80 259.35 C 1223.40 259.39 1227.01 259.41 1230.63 259.36 C 1230.63 262.83 1230.63 266.29 1230.63 269.76 C 1227.01 269.72 1223.39 269.73 1219.78 269.74 C 1219.82 285.29 1219.76 300.84 1219.82 316.38 C 1216.12 316.44 1212.42 316.44 1208.74 316.46 C 1208.77 300.88 1208.72 285.31 1208.75 269.73 C 1206.68 269.73 1204.63 269.72 1202.59 269.71 C 1202.59 266.27 1202.59 262.83 1202.57 259.39 C 1204.62 259.39 1206.68 259.40 1208.76 259.41 C 1208.72 252.16 1208.78 244.92 1208.71 237.69 Z" />
<path fill="#2e3192" d=" M 352.64 247.14 C 361.75 248.66 370.72 250.86 379.76 252.74 C 378.53 257.67 377.92 262.74 376.43 267.59 C 375.66 267.32 374.13 266.76 373.37 266.49 C 374.19 262.90 374.94 259.30 375.79 255.72 C 373.37 255.17 370.94 254.66 368.52 254.17 C 367.65 257.64 366.95 261.15 366.33 264.68 C 365.25 264.62 364.17 264.57 363.09 264.52 C 363.27 260.74 364.38 257.10 365.15 253.42 C 361.85 252.73 358.56 252.04 355.30 251.25 C 354.24 254.91 354.09 258.86 352.54 262.35 C 351.80 262.21 350.31 261.92 349.57 261.78 C 350.64 256.91 351.66 252.02 352.64 247.14 Z" />
<path fill="#2e3192" d=" M 79.87 254.78 C 80.98 254.37 82.08 253.96 83.17 253.53 C 83.66 255.67 84.15 257.81 84.66 259.96 C 92.63 258.10 100.56 256.09 108.52 254.19 C 108.61 255.45 108.71 256.72 108.81 258.00 C 100.96 259.52 93.27 261.79 85.52 263.74 C 86.11 265.74 86.71 267.73 87.36 269.72 C 86.20 270.07 85.05 270.45 83.91 270.84 C 82.53 265.50 81.42 260.08 79.87 254.78 Z" />
<path fill="#2e3192" d=" M 630.94 258.33 C 640.04 256.54 650.51 257.96 657.44 264.60 C 664.02 270.89 666.38 280.47 665.59 289.34 C 650.74 289.27 635.90 289.30 621.06 289.31 C 620.39 298.72 628.50 307.29 637.83 307.57 C 645.57 308.38 652.32 302.85 656.03 296.52 C 659.36 298.22 662.63 300.04 665.91 301.84 C 661.99 308.14 656.16 313.77 648.97 316.04 C 643.40 317.24 637.57 317.92 631.95 316.66 C 622.74 314.97 614.22 308.37 611.57 299.19 C 609.03 292.06 608.18 284.14 610.55 276.85 C 613.08 267.43 621.41 260.09 630.94 258.33 M 621.35 280.83 C 632.24 280.83 643.14 280.87 654.04 280.81 C 653.72 274.98 649.48 269.70 643.95 267.96 C 634.61 264.92 622.82 270.61 621.35 280.83 Z" />
<path fill="#2e3192" d=" M 855.38 260.30 C 861.49 257.80 868.45 256.65 874.88 258.64 C 880.68 260.01 885.65 263.71 889.45 268.20 C 889.47 265.17 889.48 262.15 889.48 259.12 C 893.59 259.17 897.70 259.11 901.82 259.20 C 901.68 277.93 902.04 296.67 901.64 315.40 C 897.59 315.29 893.54 315.31 889.50 315.34 C 889.50 312.50 889.64 309.65 889.24 306.84 C 883.64 314.26 874.15 318.39 864.90 317.13 C 854.87 316.38 845.42 310.06 841.15 300.91 C 838.11 294.84 837.82 287.82 838.65 281.20 C 840.25 272.03 846.73 263.80 855.38 260.30 M 864.28 268.35 C 858.59 270.27 853.40 274.48 851.49 280.32 C 847.75 290.90 853.76 304.28 864.99 307.03 C 872.99 309.08 882.19 305.72 886.83 298.84 C 892.10 290.69 891.08 278.93 883.83 272.26 C 878.64 267.59 870.86 266.30 864.28 268.35 Z" />
<path fill="#2e3192" d=" M 1081.66 261.67 C 1089.24 257.22 1098.60 256.78 1106.99 258.89 C 1115.09 260.96 1121.60 267.63 1124.19 275.50 C 1125.94 280.00 1125.74 284.89 1126.21 289.62 C 1110.86 290.04 1095.49 289.67 1080.14 289.80 C 1080.03 294.39 1081.56 298.92 1084.59 302.40 C 1088.78 307.30 1095.72 309.38 1102.01 308.29 C 1108.04 306.96 1112.98 302.55 1116.02 297.30 C 1119.31 299.04 1122.58 300.86 1125.95 302.49 C 1125.26 304.97 1123.29 306.73 1121.61 308.55 C 1118.11 312.12 1114.20 315.72 1109.22 316.97 C 1101.09 319.07 1092.09 319.14 1084.37 315.54 C 1078.76 312.93 1073.88 308.45 1071.53 302.66 C 1068.61 295.48 1066.82 287.44 1068.76 279.77 C 1070.33 272.33 1074.90 265.35 1081.66 261.67 M 1080.92 281.47 C 1091.94 281.42 1102.96 281.46 1113.98 281.45 C 1113.71 274.11 1107.25 267.77 1099.94 267.45 C 1091.46 266.62 1081.25 272.12 1080.92 281.47 Z" />
<path fill="#2e3192" d=" M 1160.32 259.25 C 1165.93 257.29 1172.10 257.33 1177.89 258.49 C 1182.88 259.45 1187.58 262.55 1189.86 267.19 C 1192.24 271.72 1192.88 276.95 1192.73 282.01 C 1192.66 293.50 1192.80 304.98 1192.66 316.47 C 1188.53 316.43 1184.41 316.41 1180.30 316.45 C 1180.11 304.33 1180.37 292.20 1180.17 280.08 C 1180.02 275.73 1178.54 270.52 1173.96 268.95 C 1167.89 266.72 1160.38 267.07 1155.15 271.14 C 1151.25 274.57 1150.29 280.07 1150.32 285.02 C 1150.27 295.49 1150.23 305.96 1150.32 316.43 C 1146.18 316.46 1142.04 316.42 1137.91 316.46 C 1137.86 297.43 1137.91 278.40 1137.88 259.37 C 1142.02 259.40 1146.17 259.37 1150.33 259.42 C 1150.26 261.93 1150.25 264.45 1150.31 266.98 C 1153.09 263.77 1156.21 260.66 1160.32 259.25 Z" />
<path fill="#2e3192" d=" M 1260.08 258.24 C 1268.92 256.76 1278.88 258.05 1285.78 264.20 C 1292.85 270.57 1295.62 280.54 1294.85 289.82 C 1279.58 289.79 1264.32 289.80 1249.06 289.79 C 1248.88 295.78 1251.77 301.85 1256.76 305.24 C 1260.87 308.16 1266.18 309.07 1271.11 308.27 C 1277.15 306.93 1281.91 302.37 1285.03 297.21 C 1288.30 299.13 1291.64 300.92 1295.06 302.58 C 1291.72 308.49 1286.31 313.35 1280.20 316.28 C 1271.64 319.19 1261.91 319.31 1253.56 315.63 C 1248.24 313.29 1243.65 309.18 1241.06 303.96 C 1236.44 294.48 1235.12 282.83 1239.92 273.15 C 1243.64 265.23 1251.47 259.58 1260.08 258.24 M 1249.49 281.36 C 1260.69 281.54 1271.90 281.38 1283.10 281.46 C 1282.42 276.68 1279.94 271.92 1275.61 269.51 C 1265.87 263.96 1251.00 269.62 1249.49 281.36 Z" />
<path fill="#2e3192" d=" M 1325.52 259.50 C 1330.67 256.69 1337.00 257.42 1342.08 260.01 C 1340.68 263.67 1338.88 267.15 1337.16 270.66 C 1332.37 267.60 1324.93 267.47 1321.29 272.37 C 1318.14 276.87 1317.18 282.54 1317.17 287.94 C 1317.17 297.44 1317.16 306.94 1317.20 316.44 C 1313.58 316.43 1309.96 316.42 1306.35 316.46 C 1306.22 297.44 1306.31 278.41 1306.32 259.39 C 1309.96 259.38 1313.62 259.34 1317.27 259.47 C 1317.16 262.42 1317.15 265.38 1317.13 268.34 C 1319.25 264.86 1321.73 261.34 1325.52 259.50 Z" />
<path fill="#2e3192" d=" M 793.26 264.27 C 802.92 256.77 816.90 256.18 827.74 261.37 C 827.76 266.21 827.76 271.05 827.76 275.89 C 823.51 271.16 817.49 267.70 810.96 268.11 C 801.67 268.01 794.25 276.26 792.65 284.93 C 791.00 294.91 797.94 305.73 808.02 307.66 C 815.33 309.55 822.75 305.75 827.67 300.48 C 827.83 305.26 827.76 310.04 827.73 314.83 C 821.00 317.79 813.32 319.02 806.08 317.52 C 795.01 315.84 785.39 307.25 782.48 296.43 C 779.09 284.82 783.44 271.41 793.26 264.27 Z" />
<path fill="#2e3192" d=" M 754.57 316.27 C 754.50 297.37 754.56 278.46 754.53 259.56 C 758.28 259.62 762.03 259.63 765.79 259.54 C 765.72 278.46 765.89 297.39 765.70 316.32 C 761.99 316.23 758.27 316.22 754.57 316.27 Z" />
<path fill="#2e3192" d=" M 346.05 271.03 C 346.56 269.86 347.08 268.69 347.61 267.53 C 356.08 271.17 364.70 274.43 373.22 277.96 C 371.29 281.98 370.36 287.41 365.84 289.37 C 360.21 291.50 354.02 286.17 355.07 280.30 C 350.43 281.43 345.80 282.64 341.14 283.69 C 341.62 282.34 342.12 281.00 342.63 279.67 C 347.27 278.54 351.95 277.59 356.55 276.32 C 356.60 276.08 356.70 275.62 356.74 275.39 C 353.29 273.67 349.58 272.56 346.05 271.03 M 359.32 276.98 C 358.90 278.97 358.26 280.98 358.50 283.04 C 359.29 285.08 361.81 286.79 364.00 285.98 C 366.74 285.39 367.60 282.43 368.88 280.31 C 365.76 279.02 362.74 277.26 359.32 276.98 Z" />
<path fill="#2e3192" d=" M 99.32 276.14 C 99.44 271.20 105.25 268.05 109.69 269.46 C 114.36 270.70 117.58 276.22 115.80 280.83 C 115.19 282.98 113.41 284.43 111.84 285.89 C 111.02 284.88 110.20 283.88 109.38 282.89 C 111.38 281.46 113.54 279.09 112.45 276.44 C 111.56 272.89 106.84 271.58 104.17 274.04 C 101.47 277.04 103.29 281.56 102.15 285.17 C 101.53 289.12 96.84 291.37 93.27 289.79 C 88.09 287.83 86.15 280.61 89.80 276.35 C 90.71 277.08 91.63 277.81 92.54 278.55 C 89.45 281.63 92.69 287.79 96.98 286.35 C 100.54 284.15 98.70 279.51 99.32 276.14 Z" />
<path fill="#2e3192" d=" M 115.02 301.96 C 117.26 300.76 120.24 303.64 119.00 305.90 C 118.53 308.55 115.57 307.62 113.70 307.50 C 113.18 305.63 112.57 302.72 115.02 301.96 Z" />
<path fill="#2e3192" d=" M 340.24 301.68 C 343.49 301.37 344.94 306.37 341.87 307.70 C 340.40 307.81 338.19 308.20 337.70 306.33 C 336.46 304.40 338.25 302.08 340.24 301.68 Z" />
<path fill="#2e3192" d=" M 117.44 332.54 C 123.94 325.94 130.73 319.65 137.19 313.02 C 139.99 316.00 144.09 318.61 144.71 322.96 C 145.86 328.47 139.49 333.45 134.37 331.54 C 131.95 330.77 130.21 328.84 128.52 327.06 C 125.75 329.61 123.09 332.28 120.56 335.07 C 119.49 334.25 118.46 333.40 117.44 332.54 M 130.86 324.53 C 132.83 327.66 137.69 330.10 140.42 326.48 C 142.92 323.43 139.58 320.24 137.72 317.91 C 135.34 320.02 133.12 322.30 130.86 324.53 Z" />
<path fill="#2e3192" d=" M 315.21 319.20 C 317.31 316.17 321.20 315.34 324.68 315.82 C 324.31 316.97 323.96 318.13 323.63 319.30 C 321.19 318.76 319.18 319.90 317.44 321.46 C 317.26 323.48 316.63 326.28 319.13 327.16 C 323.29 327.92 326.79 324.11 331.05 324.68 C 337.16 325.22 340.36 333.12 336.84 338.01 C 334.22 342.72 327.49 342.94 323.50 339.92 C 324.32 338.82 325.14 337.73 325.96 336.63 C 326.46 337.06 327.46 337.91 327.96 338.33 C 330.82 338.75 334.57 337.25 334.77 333.97 C 335.21 331.18 332.80 329.32 330.73 328.01 C 326.48 328.85 322.43 331.71 317.99 330.71 C 313.27 329.26 312.09 322.74 315.21 319.20 Z" />
<path fill="#2e3192" d=" M 136.88 350.19 C 142.35 342.64 147.16 334.64 152.69 327.14 C 153.38 327.69 154.77 328.80 155.46 329.35 C 153.49 332.43 151.41 335.43 149.48 338.53 C 153.00 340.86 156.48 343.26 159.98 345.62 C 162.01 342.51 164.15 339.46 166.24 336.39 C 167.20 337.18 168.17 337.98 169.12 338.79 C 163.95 346.33 158.80 353.91 153.76 361.55 C 152.79 360.90 151.83 360.27 150.86 359.64 C 152.86 355.66 155.70 352.20 158.02 348.41 C 154.48 346.18 150.97 343.87 147.62 341.34 C 144.89 344.84 142.72 348.73 139.98 352.22 C 138.94 351.54 137.91 350.87 136.88 350.19 Z" />
<path fill="#2e3192" d=" M 293.15 336.58 C 297.29 333.64 301.43 330.68 305.79 328.07 C 306.24 328.77 307.14 330.17 307.59 330.86 C 304.47 332.94 301.41 335.09 298.24 337.07 C 299.54 339.09 300.85 341.10 302.13 343.13 C 305.41 341.40 308.39 339.18 311.44 337.08 C 312.09 338.05 312.74 339.04 313.40 340.02 C 310.35 341.99 307.34 344.02 304.33 346.04 C 306.09 348.90 308.02 351.67 309.83 354.51 C 312.98 352.31 316.16 350.14 319.47 348.16 C 320.01 349.13 320.56 350.10 321.13 351.06 C 316.98 353.77 312.88 356.55 308.82 359.39 C 303.36 351.95 298.61 344.01 293.15 336.58 Z" />
<path fill="#2e3192" d=" M 282.77 342.03 C 283.90 341.56 285.04 341.09 286.17 340.62 C 289.88 349.64 293.07 358.87 296.74 367.92 C 287.77 363.40 278.47 359.57 269.58 354.93 C 272.08 361.22 274.34 367.61 276.82 373.92 C 275.79 374.39 274.75 374.87 273.72 375.36 C 269.90 366.38 266.31 357.26 263.19 348.00 C 272.00 352.37 280.96 356.46 289.80 360.78 C 287.76 354.42 284.92 348.36 282.77 342.03 Z" />
<path fill="#2e3192" d=" M 176.00 341.35 C 177.14 341.87 178.29 342.40 179.44 342.92 C 175.44 351.21 171.52 359.54 167.75 367.93 C 166.58 367.48 165.41 367.03 164.24 366.59 C 168.13 358.17 171.97 349.71 176.00 341.35 Z" />
<path fill="#2e3192" d=" M 185.94 345.61 C 187.10 346.01 188.27 346.41 189.44 346.82 C 186.88 354.51 184.54 362.28 181.98 369.98 C 184.68 370.76 187.35 371.62 190.01 372.53 C 189.47 373.61 188.94 374.71 188.44 375.81 C 184.84 374.41 181.18 373.18 177.47 372.11 C 179.98 363.17 183.29 354.49 185.94 345.61 Z" />
<path fill="#2e3192" d=" M 201.16 350.35 C 202.36 350.51 203.56 350.67 204.76 350.83 C 202.99 359.87 201.05 368.88 199.05 377.88 C 197.83 377.72 196.60 377.57 195.38 377.43 C 197.24 368.39 199.28 359.38 201.16 350.35 Z" />
<path fill="#2e3192" d=" M 252.44 351.57 C 253.62 351.08 254.82 350.86 256.05 350.89 C 257.77 359.28 259.26 367.72 261.04 376.10 C 262.05 378.36 258.98 378.47 257.60 378.52 C 256.02 369.51 254.31 360.52 252.44 351.57 Z" />
<path fill="#2e3192" d=" M 211.75 352.44 C 216.05 352.73 221.10 352.37 224.50 355.53 C 226.88 357.60 226.82 361.21 225.86 363.97 C 224.45 368.52 218.61 370.10 214.49 368.56 C 213.28 372.32 213.47 376.31 213.26 380.20 C 212.31 380.20 210.41 380.18 209.46 380.17 C 210.06 370.92 211.27 361.71 211.75 352.44 M 215.29 355.86 C 214.83 359.12 214.54 362.39 214.41 365.68 C 216.51 365.64 218.80 366.00 220.70 364.81 C 222.88 363.68 223.26 360.72 222.38 358.63 C 220.73 356.44 217.76 356.31 215.29 355.86 Z" />
<path fill="#2e3192" d=" M 232.40 353.50 C 237.29 353.50 243.61 351.64 247.08 356.21 C 249.36 360.03 248.54 366.26 244.07 368.10 C 242.02 369.15 239.69 369.35 237.42 369.45 C 237.58 373.28 237.77 377.10 237.84 380.94 C 236.65 381.01 235.46 381.10 234.27 381.20 C 233.81 371.96 233.08 362.73 232.40 353.50 M 236.51 356.41 C 236.62 359.73 236.75 363.05 237.15 366.36 C 239.24 365.85 241.64 365.81 243.35 364.34 C 245.28 362.68 245.44 359.26 243.36 357.65 C 241.37 356.24 238.80 356.57 236.51 356.41 Z" />
<path fill="#2e3192" d=" M 1182.58 369.77 C 1184.89 369.80 1187.22 369.80 1189.55 369.77 C 1189.83 392.34 1189.60 414.92 1189.66 437.49 C 1187.27 437.49 1184.90 437.50 1182.54 437.51 C 1182.55 414.93 1182.46 392.35 1182.58 369.77 Z" />
<path fill="#2e3192" d=" M 1037.44 437.53 C 1037.52 414.94 1037.26 392.35 1037.57 369.76 C 1039.89 369.81 1042.21 369.81 1044.55 369.76 C 1044.72 392.35 1044.68 414.94 1044.58 437.53 C 1042.19 437.51 1039.81 437.51 1037.44 437.53 Z" />
<path fill="#2e3192" d=" M 1095.59 369.78 C 1097.88 369.80 1100.19 369.79 1102.50 369.77 C 1102.98 382.01 1102.52 394.28 1102.72 406.53 C 1105.17 403.69 1108.08 400.88 1111.94 400.23 C 1120.30 398.23 1129.18 404.00 1131.61 412.08 C 1134.00 420.33 1132.10 430.70 1124.63 435.77 C 1120.72 438.68 1115.57 439.16 1110.91 438.23 C 1107.43 437.37 1105.03 434.52 1102.70 432.02 C 1102.68 433.84 1102.67 435.66 1102.69 437.49 C 1100.30 437.50 1097.93 437.51 1095.56 437.53 C 1095.57 414.95 1095.48 392.36 1095.59 369.78 M 1111.40 406.50 C 1100.95 408.90 1099.52 424.45 1107.63 430.35 C 1111.70 433.34 1117.66 432.64 1121.41 429.45 C 1125.54 425.26 1126.32 418.56 1124.20 413.22 C 1122.22 408.34 1116.55 405.29 1111.40 406.50 Z" />
<path fill="#2e3192" d=" M 499.96 391.85 C 505.67 382.85 516.22 376.90 526.98 377.57 C 542.74 377.95 556.93 392.13 556.67 408.01 C 556.98 416.13 553.28 423.94 547.78 429.75 C 550.82 432.59 553.64 435.67 556.73 438.47 C 553.64 438.62 550.55 438.60 547.47 438.57 C 545.69 437.15 544.39 434.41 542.10 434.10 C 537.41 436.51 532.49 438.99 527.06 438.73 C 514.10 439.63 501.39 430.92 497.16 418.72 C 493.95 409.96 495.17 399.81 499.96 391.85 M 507.18 394.16 C 503.06 400.45 501.37 408.72 504.12 415.89 C 506.87 423.64 513.81 429.93 521.96 431.41 C 527.21 432.36 532.49 430.87 537.20 428.60 C 533.09 423.87 528.36 419.73 523.89 415.34 C 526.93 415.20 529.98 415.03 533.02 415.27 C 536.80 417.49 538.96 422.26 542.92 423.97 C 549.97 416.47 551.40 404.03 545.71 395.33 C 541.73 388.90 534.42 384.88 526.91 384.57 C 519.26 384.06 511.58 387.93 507.18 394.16 Z" />
<path fill="#2e3192" d=" M 782.05 398.05 C 787.63 380.56 810.71 371.99 826.42 381.38 C 826.31 384.30 826.29 387.21 826.39 390.13 C 821.30 385.99 814.67 383.65 808.09 384.47 C 798.48 385.64 790.47 393.56 788.33 402.87 C 785.96 413.66 791.88 425.70 802.16 429.98 C 810.20 433.61 819.75 431.29 826.34 425.77 C 826.32 428.75 826.32 431.72 826.34 434.71 C 817.40 439.63 805.92 440.15 796.89 435.18 C 783.84 428.55 776.86 411.90 782.05 398.05 Z" />
<path fill="#2e3192" d=" M 980.18 389.13 C 987.21 379.90 999.83 375.58 1011.08 378.33 C 1017.92 379.37 1023.70 383.74 1028.07 388.92 C 1026.25 390.61 1024.43 392.29 1022.67 394.02 C 1018.95 389.47 1013.93 385.75 1007.98 384.91 C 997.41 382.71 986.28 389.45 982.49 399.37 C 977.88 411.28 984.68 426.05 996.61 430.52 C 1007.79 434.98 1021.83 426.61 1022.96 414.54 C 1017.86 414.51 1012.76 414.51 1007.66 414.56 C 1007.63 412.23 1007.65 409.91 1007.70 407.58 C 1015.43 407.59 1023.16 407.53 1030.89 407.62 C 1031.34 415.06 1029.69 422.88 1024.85 428.73 C 1018.33 436.97 1006.94 440.46 996.81 438.02 C 982.90 435.12 973.10 420.97 973.60 407.06 C 974.10 400.64 976.13 394.21 980.18 389.13 Z" />
<path fill="#2e3192" d=" M 1219.92 401.90 C 1222.37 387.90 1236.04 377.65 1249.99 377.55 C 1255.36 377.31 1260.73 378.69 1265.42 381.32 C 1265.41 384.27 1265.40 387.23 1265.25 390.19 C 1261.04 386.53 1255.62 384.31 1250.02 384.34 C 1238.55 384.04 1228.20 393.74 1226.93 404.98 C 1225.17 417.60 1234.99 430.99 1248.02 431.63 C 1254.41 432.41 1260.31 429.42 1265.40 425.91 C 1265.39 428.81 1265.35 431.72 1265.40 434.63 C 1256.90 439.48 1246.07 440.05 1237.20 435.88 C 1224.64 430.17 1216.87 415.49 1219.92 401.90 Z" />
<path fill="#2e3192" d=" M 837.49 379.54 C 840.35 378.54 843.95 380.77 843.91 383.91 C 844.94 388.48 837.94 391.33 835.34 387.60 C 833.02 385.03 834.22 380.66 837.49 379.54 Z" />
<path fill="#2e3192" d=" M 1273.27 385.88 C 1271.74 381.67 1277.18 377.35 1280.80 380.16 C 1284.24 382.35 1283.08 387.36 1279.96 389.29 C 1277.28 389.54 1273.97 388.92 1273.27 385.88 Z" />
<path fill="#2e3192" d=" M 854.56 386.83 C 856.88 386.82 859.20 386.80 861.54 386.76 C 861.88 391.49 861.66 396.23 861.72 400.96 C 866.08 400.87 870.44 400.89 874.82 400.91 C 878.72 408.25 882.39 415.74 886.53 422.96 C 886.71 422.93 887.07 422.88 887.25 422.85 C 890.81 415.55 894.52 408.31 897.92 400.93 C 900.67 400.90 903.43 400.90 906.19 400.90 C 896.40 420.05 886.70 439.27 876.63 458.27 C 874.01 458.18 871.40 458.18 868.79 458.20 C 872.95 449.65 877.57 441.33 881.96 432.90 C 882.52 431.97 882.87 430.80 882.18 429.83 C 878.10 422.24 873.71 414.81 869.73 407.15 C 867.09 407.64 864.39 407.64 861.72 407.58 C 861.68 417.55 861.73 427.53 861.70 437.50 C 859.32 437.50 856.94 437.53 854.57 437.58 C 854.46 427.56 854.57 417.55 854.51 407.54 C 853.24 407.57 851.98 407.60 850.73 407.64 C 850.71 405.39 850.72 403.14 850.73 400.89 C 851.99 400.90 853.25 400.91 854.53 400.93 C 854.53 396.23 854.49 391.53 854.56 386.83 Z" />
<path fill="#2e3192" d=" M 1293.43 386.93 C 1295.82 386.84 1298.22 386.87 1300.63 387.08 C 1300.57 391.68 1300.57 396.29 1300.58 400.90 C 1304.96 400.92 1309.35 400.90 1313.74 400.91 C 1317.71 408.60 1321.86 416.19 1325.82 423.88 C 1329.44 416.18 1333.21 408.54 1337.00 400.92 C 1339.66 400.90 1342.32 400.89 1345.00 400.89 L 1345.00 402.95 L 1344.79 401.80 C 1335.02 420.54 1325.48 439.41 1315.75 458.18 C 1313.10 458.18 1310.46 458.17 1307.84 458.18 C 1312.20 449.00 1317.13 440.09 1321.87 431.11 C 1317.17 422.61 1312.34 414.17 1307.88 405.55 C 1307.38 409.11 1303.07 407.14 1300.61 407.60 C 1300.59 417.57 1300.60 427.53 1300.60 437.50 C 1298.20 437.50 1295.82 437.51 1293.45 437.52 C 1293.43 427.55 1293.47 417.58 1293.44 407.61 C 1292.13 407.58 1290.83 407.56 1289.55 407.54 C 1289.54 405.33 1289.54 403.13 1289.54 400.93 C 1290.52 400.92 1292.47 400.89 1293.45 400.87 C 1293.46 396.22 1293.46 391.58 1293.43 386.93 Z" />
<path fill="#2e3192" d=" M 602.93 406.83 C 609.01 397.77 624.48 397.26 630.80 406.31 C 633.72 410.37 634.54 415.53 634.21 420.44 C 624.99 420.55 615.77 420.29 606.56 420.58 C 606.99 425.45 609.72 430.48 614.73 431.84 C 620.25 433.75 625.81 429.85 628.24 425.03 C 630.38 426.24 632.49 427.49 634.55 428.84 C 631.95 432.10 629.21 435.57 625.30 437.30 C 617.82 440.21 608.02 438.69 603.28 431.73 C 598.54 424.43 597.98 414.17 602.93 406.83 M 606.99 414.77 C 613.61 415.51 620.30 414.98 626.95 415.12 C 626.93 410.05 622.11 405.46 616.97 406.17 C 611.99 406.21 608.02 410.04 606.99 414.77 Z" />
<path fill="#2e3192" d=" M 689.34 400.53 C 700.58 396.99 713.78 406.04 713.86 417.96 C 715.22 428.94 704.97 439.43 694.02 438.62 C 683.77 438.79 674.45 429.24 675.08 418.97 C 674.91 410.54 681.24 402.63 689.34 400.53 M 690.35 407.48 C 685.75 409.32 682.08 413.98 682.22 419.05 C 681.81 425.51 687.55 431.61 694.00 431.69 C 700.83 432.26 707.24 425.81 706.73 419.00 C 706.95 411.06 697.83 404.22 690.35 407.48 Z" />
<path fill="#2e3192" d=" M 727.18 405.69 C 732.09 397.26 747.66 397.65 750.19 407.78 C 752.31 417.52 750.78 427.58 751.28 437.46 C 748.89 437.49 746.51 437.51 744.14 437.51 C 744.04 430.30 744.27 423.08 744.05 415.88 C 743.72 413.23 743.84 410.13 741.92 408.05 C 738.78 405.66 734.08 405.62 730.83 407.80 C 727.95 409.86 727.28 413.64 727.19 416.95 C 727.10 423.81 727.21 430.67 727.16 437.54 C 724.77 437.50 722.38 437.49 719.99 437.49 C 720.04 425.29 720.05 413.09 720.00 400.89 C 722.39 400.90 724.78 400.90 727.19 400.91 C 727.18 402.50 727.18 404.09 727.18 405.69 Z" />
<path fill="#2e3192" d=" M 1066.26 400.31 C 1077.67 397.29 1090.41 406.97 1089.81 418.92 C 1090.68 429.25 1081.22 438.83 1070.98 438.61 C 1060.76 439.33 1051.09 430.32 1051.12 420.06 C 1050.42 410.90 1057.28 402.06 1066.26 400.31 M 1066.33 407.46 C 1061.68 409.27 1058.27 413.95 1058.13 418.96 C 1057.86 425.81 1064.13 432.29 1071.09 431.69 C 1077.87 431.58 1083.55 424.77 1082.62 418.09 C 1082.21 410.49 1073.53 404.39 1066.33 407.46 Z" />
<path fill="#2e3192" d=" M 1137.77 410.64 C 1140.73 403.01 1149.75 397.98 1157.73 400.46 C 1161.17 401.37 1163.85 403.85 1166.30 406.31 C 1166.24 404.51 1166.21 402.71 1166.20 400.91 C 1168.58 400.90 1170.97 400.90 1173.37 400.90 C 1173.34 413.09 1173.32 425.27 1173.37 437.46 C 1170.97 437.49 1168.57 437.50 1166.20 437.50 C 1166.20 435.66 1166.25 433.83 1166.30 432.00 C 1163.90 434.54 1161.35 437.20 1157.88 438.16 C 1152.32 439.47 1145.98 438.19 1141.94 434.00 C 1136.08 427.95 1134.77 418.36 1137.77 410.64 M 1152.42 406.57 C 1149.43 407.42 1146.86 409.45 1145.23 412.08 C 1140.86 419.13 1144.38 430.31 1152.89 432.14 C 1160.07 433.51 1166.70 427.03 1166.53 419.94 C 1167.52 412.33 1160.32 404.25 1152.42 406.57 Z" />
<path fill="#2e3192" d=" M 562.34 401.01 C 564.75 400.89 567.18 400.88 569.61 400.94 C 569.49 407.62 569.57 414.29 569.54 420.97 C 569.40 424.53 570.54 428.37 573.36 430.72 C 575.99 432.88 580.02 432.75 582.77 430.87 C 585.71 428.55 586.06 424.46 586.29 421.00 C 586.29 414.30 586.27 407.60 586.25 400.90 C 588.64 400.90 591.04 400.90 593.45 400.91 C 593.36 407.93 593.46 414.95 593.44 421.98 C 593.37 427.05 591.87 432.49 587.91 435.92 C 581.17 441.67 569.41 439.80 564.97 432.08 C 563.05 429.10 562.35 425.52 562.40 422.03 C 562.37 415.02 562.44 408.02 562.34 401.01 Z" />
<path fill="#2e3192" d=" M 639.67 407.54 C 639.66 405.31 639.69 403.09 639.74 400.87 C 651.10 400.96 662.47 400.86 673.84 400.92 C 665.70 410.83 657.69 420.85 649.40 430.64 C 657.12 430.63 664.84 430.76 672.56 430.56 C 672.66 432.88 672.68 435.20 672.64 437.53 C 660.19 437.37 647.73 437.65 635.28 437.40 C 643.41 427.45 651.55 417.53 659.70 407.60 C 653.02 407.54 646.34 407.67 639.67 407.54 Z" />
<path fill="#2e3192" d=" M 835.49 400.90 C 837.88 400.89 840.28 400.89 842.68 400.90 C 842.64 413.11 842.70 425.33 842.64 437.55 C 840.25 437.52 837.88 437.50 835.51 437.48 C 835.52 425.28 835.53 413.09 835.49 400.90 Z" />
<path fill="#2e3192" d=" M 1274.34 400.87 C 1276.74 400.87 1279.16 400.92 1281.59 401.00 C 1281.42 413.17 1281.56 425.35 1281.51 437.52 C 1279.11 437.51 1276.73 437.50 1274.37 437.50 C 1274.34 425.29 1274.41 413.08 1274.34 400.87 Z" />
<path fill="#2e3192" d=" M 934.33 415.32 C 935.76 412.31 939.60 412.28 942.11 413.94 C 943.39 416.29 943.79 419.61 941.18 421.23 C 937.71 424.68 931.73 419.17 934.33 415.32 Z" />
<path fill="#ed1b24" d=" M 151.68 148.75 C 152.13 147.85 152.66 147.00 153.16 146.13 L 153.29 147.01 L 153.37 147.61 C 203.61 147.47 253.85 147.51 304.08 147.59 L 303.73 147.02 L 303.41 146.47 C 304.09 147.06 304.75 147.68 305.40 148.31 L 305.40 148.64 C 305.41 177.44 305.38 206.23 305.39 235.03 C 305.30 241.70 305.93 248.48 304.22 255.01 C 298.76 279.40 283.09 300.43 264.00 316.07 C 254.97 323.67 244.97 330.01 234.67 335.72 C 233.76 336.14 232.82 336.47 231.91 336.85 C 227.46 338.47 222.63 337.41 218.24 336.14 C 204.02 327.72 191.25 317.01 179.86 305.07 C 164.97 289.25 152.42 269.29 151.57 247.01 C 151.61 214.26 151.37 181.50 151.68 148.75 M 211.75 152.33 C 211.55 174.64 212.04 196.96 211.52 219.26 C 193.39 219.11 175.25 219.26 157.12 219.21 C 157.11 220.75 157.10 222.29 157.08 223.84 C 170.39 223.94 183.70 224.08 197.00 223.89 C 204.18 224.67 211.37 223.53 218.56 223.85 C 218.52 200.10 218.64 176.36 218.51 152.62 C 216.25 152.53 214.00 152.43 211.75 152.33 M 235.45 154.19 C 235.60 174.04 236.40 193.86 236.56 213.71 C 256.66 213.77 276.75 213.76 296.84 213.71 C 297.21 211.14 297.31 208.54 297.01 205.97 C 297.11 203.96 297.24 201.95 297.23 199.95 C 296.66 186.64 297.73 173.31 296.76 160.01 C 296.69 158.12 297.02 156.26 297.34 154.42 C 276.72 153.91 256.08 154.33 235.45 154.19 M 186.86 172.86 C 186.03 175.71 185.14 178.55 184.08 181.33 C 181.01 181.41 177.94 181.43 174.87 181.47 C 177.17 183.41 179.58 185.23 182.06 186.93 C 181.38 189.95 180.40 192.90 179.38 195.82 C 182.10 194.46 184.29 192.10 187.16 191.09 C 189.90 192.19 192.03 194.40 194.62 195.82 C 193.78 192.89 192.80 190.01 192.05 187.06 C 194.55 185.19 197.02 183.28 199.57 181.48 C 196.38 181.44 193.19 181.40 190.00 181.36 C 189.13 178.46 188.28 175.54 186.86 172.86 M 230.63 329.96 C 232.60 328.70 234.49 327.34 236.34 325.91 C 236.39 295.13 236.28 264.35 236.40 233.57 C 256.39 233.60 276.38 233.61 296.38 233.57 C 296.38 232.52 296.39 230.40 296.39 229.34 C 274.46 229.27 252.52 229.21 230.59 229.37 C 230.61 262.90 230.50 296.43 230.63 329.96 M 157.49 241.79 C 157.69 256.96 162.08 272.39 171.44 284.51 C 181.10 296.76 192.04 308.12 204.68 317.33 C 207.14 319.03 209.37 321.26 212.36 321.98 C 212.38 309.66 212.12 297.34 212.23 285.02 C 211.19 270.64 212.06 256.20 211.57 241.79 C 193.54 241.86 175.51 241.82 157.49 241.79 Z" />
<path fill="#ed1b24" d=" M 447.34 354.62 C 447.33 352.31 447.36 350.00 447.43 347.70 C 746.27 347.77 1045.11 347.74 1343.94 347.72 C 1343.96 350.02 1343.96 352.33 1343.95 354.63 C 1045.08 354.59 746.21 354.61 447.34 354.62 Z" />
</svg>